<svg width="550" height="193" viewBox="0 0 550 193" fill="none" xmlns="http://www.w3.org/2000/svg">
<path opacity="0.3" d="M6.63474 9.64712C-9.78378 -4.76033 -34.4755 -2.8095 -48.5508 14.0214C-62.6426 30.872 -60.7567 56.2568 -44.3385 70.7197L-18.8229 40.2089C-44.3385 70.7197 -44.3284 70.7286 -44.3179 70.7378L-44.2944 70.7584L-44.2385 70.8075L-44.0912 70.9363C-43.9772 71.0356 -43.8317 71.162 -43.655 71.3144C-43.4947 71.4526 -43.3087 71.6123 -43.0974 71.7928C-42.8427 72.0103 -42.5511 72.258 -42.223 72.5348C-41.0225 73.5476 -39.332 74.9508 -37.1729 76.6883C-32.8566 80.1617 -26.6547 84.9808 -18.7366 90.6937C-2.92462 102.102 19.8712 117.175 48.2884 132.23C104.827 162.181 185.406 193 278.409 193C371.513 193 450.514 162.121 505.586 131.979C533.237 116.845 555.248 101.685 570.476 90.1968C578.101 84.4436 584.06 79.5849 588.211 76.0738C590.287 74.3174 591.914 72.8956 593.074 71.8647C593.654 71.3492 594.117 70.931 594.462 70.6174C594.634 70.4606 594.777 70.3298 594.889 70.2261L595.036 70.0907L595.093 70.0384L595.117 70.0161C595.127 70.0061 595.138 69.9964 568.823 40.2089L595.138 69.9964C611.167 55.0807 612.38 29.6527 597.846 13.2015C583.333 -3.22716 558.606 -4.49099 542.575 10.3601L542.566 10.3681L542.543 10.3897L542.527 10.4042L542.509 10.4213L542.481 10.4463C542.357 10.5587 542.12 10.7728 541.773 11.0818C541.077 11.7 539.939 12.697 538.377 14.0191C535.249 16.6649 530.432 20.6017 524.068 25.4031C511.316 35.0239 492.491 48.0097 468.717 61.0216C420.94 87.1711 354.734 112.584 278.409 112.584C201.983 112.584 133.947 87.1109 84.2262 60.771C59.514 47.6795 39.7698 34.6073 26.324 24.9063C19.6132 20.0645 14.5068 16.0881 11.172 13.4046C9.50566 12.0636 8.28486 11.0481 7.53052 10.4118C7.33444 10.2463 7.16999 10.1066 7.03752 9.99352C6.91528 9.88919 6.82023 9.80753 6.75274 9.74933L6.63474 9.64712Z" fill="white"/>
</svg>
