<svg width="122" height="39" viewBox="0 0 122 39" fill="none" xmlns="http://www.w3.org/2000/svg">
<path d="M17.5376 11.938V17.0321H28.0757C27.7258 18.7431 26.5981 20.0263 24.7315 20.8818C22.865 21.7373 20.6096 22.1651 18.0431 22.1651C14.9323 22.1651 12.4047 21.5429 10.4215 20.2596C8.43828 19.0153 7.46613 16.9932 7.46613 14.2323C7.46613 11.6658 8.43828 9.64375 10.4215 8.20496C12.3658 6.76618 14.9323 6.02734 18.082 6.02734C23.1372 6.02734 26.2481 7.19392 27.4147 9.4882H34.9975C34.6086 7.46613 33.5976 5.75514 31.9644 4.27747C30.2923 2.7998 28.2313 1.74987 25.8204 1.04992C23.4094 0.349975 20.7263 0 17.8487 0C12.5991 0 8.32162 1.28324 4.97742 3.84972C1.63321 6.4162 0 9.87706 0 14.1934C0 16.4877 0.466633 18.5098 1.3999 20.2985C2.33316 22.0873 3.65529 23.5261 5.32739 24.6149C6.96061 25.7426 8.86603 26.5981 11.0436 27.1425C13.2213 27.7258 15.5544 27.998 18.1209 27.998C23.215 27.998 27.4147 26.8314 30.7589 24.4205C34.1031 22.0484 35.7752 18.782 35.7752 14.5823V11.938H17.5376Z" fill="#FF6B0A"/>
<path d="M50.9307 27.998C55.0138 27.998 58.3191 27.1036 60.8856 25.3148C63.4521 23.5261 64.7353 21.0763 64.7353 17.8876C64.7353 14.7378 63.4521 12.2491 60.8856 10.4604C58.3191 8.6716 55.0138 7.77721 50.9307 7.77721C46.8088 7.77721 43.4646 8.6716 40.937 10.4604C38.3705 12.2491 37.1262 14.7378 37.1262 17.8876C37.1262 21.0763 38.3705 23.5261 40.937 25.3148C43.4646 27.1036 46.8088 27.998 50.9307 27.998ZM50.9307 23.0983C48.9864 23.0983 47.3921 22.6317 46.1866 21.6595C44.9812 20.6874 44.3979 19.443 44.3979 17.8876C44.3979 16.371 44.9812 15.1267 46.1866 14.1545C47.3921 13.1824 48.9864 12.6769 50.9307 12.6769C52.875 12.6769 54.4305 13.1824 55.636 14.1545C56.8414 15.1267 57.4636 16.371 57.4636 17.8876C57.4636 19.443 56.8414 20.6874 55.636 21.6595C54.4305 22.6317 52.875 23.0983 50.9307 23.0983Z" fill="#FF6B0A"/>
<path d="M79.5561 27.998C83.6391 27.998 86.9444 27.1036 89.5109 25.3148C92.0774 23.5261 93.3606 21.0763 93.3606 17.8876C93.3606 14.7378 92.0774 12.2491 89.5109 10.4604C86.9444 8.6716 83.6391 7.77721 79.5561 7.77721C75.4341 7.77721 72.0899 8.6716 69.5623 10.4604C66.9959 12.2491 65.7515 14.7378 65.7515 17.8876C65.7515 21.0763 66.9959 23.5261 69.5623 25.3148C72.0899 27.1036 75.4341 27.998 79.5561 27.998ZM79.5561 23.0983C77.6117 23.0983 76.0174 22.6317 74.812 21.6595C73.6065 20.6874 73.0232 19.443 73.0232 17.8876C73.0232 16.371 73.6065 15.1267 74.812 14.1545C76.0174 13.1824 77.6117 12.6769 79.5561 12.6769C81.5004 12.6769 83.0558 13.1824 84.2613 14.1545C85.4667 15.1267 86.0889 16.371 86.0889 17.8876C86.0889 19.443 85.4667 20.6874 84.2613 21.6595C83.0558 22.6317 81.5004 23.0983 79.5561 23.0983Z" fill="#FF6B0A"/>
<path d="M110.549 7.77721C106.271 7.77721 102.188 8.16608 102.188 8.16608H95.0333V27.6091H102.188V19.2486C102.188 17.1488 102.772 15.5544 104.016 14.4267C105.221 13.3379 106.816 12.7546 108.799 12.7546C110.666 12.7546 112.065 13.299 112.96 14.3101C113.815 15.36 114.282 16.9154 114.282 18.9764V27.6091H121.398V17.2265C121.398 10.927 117.782 7.77721 110.549 7.77721Z" fill="#FF6B0A"/>
<path d="M53.725 30.9772C53.0084 30.3467 51.9308 30.4321 51.3165 31.1686C50.7015 31.9059 50.7838 33.0166 51.5003 33.6495L52.6139 32.3144C51.5003 33.6495 51.5008 33.6499 51.5012 33.6503L51.5023 33.6512L51.5047 33.6533L51.5111 33.6589C51.5161 33.6633 51.5225 33.6688 51.5302 33.6755C51.5372 33.6815 51.5453 33.6885 51.5545 33.6964C51.5656 33.7059 51.5783 33.7168 51.5927 33.7289C51.6451 33.7732 51.7188 33.8346 51.8131 33.9106C52.0014 34.0626 52.2721 34.2735 52.6177 34.5235C53.3078 35.0226 54.3027 35.6822 55.5429 36.3409C58.0104 37.6515 61.5271 39 65.5861 39C69.6494 39 73.0973 37.6489 75.5008 36.33C76.7076 35.6677 77.6682 35.0044 78.3328 34.5017C78.6656 34.25 78.9257 34.0374 79.1068 33.8837C79.1974 33.8069 79.2684 33.7447 79.319 33.6996C79.3443 33.677 79.3646 33.6587 79.3796 33.645C79.3871 33.6381 79.3934 33.6324 79.3983 33.6279L79.4047 33.622L79.4071 33.6197L79.4082 33.6187C79.4087 33.6182 79.4091 33.6178 78.2607 32.3144L79.4091 33.6178C80.1087 32.9652 80.1616 31.8525 79.5273 31.1327C78.8939 30.4138 77.8147 30.3585 77.1151 31.0084L77.1147 31.0087L77.1137 31.0097L77.113 31.0103L77.1122 31.011L77.111 31.0121C77.1056 31.0171 77.0953 31.0264 77.0801 31.0399C77.0498 31.067 77.0001 31.1106 76.9319 31.1685C76.7954 31.2842 76.5852 31.4565 76.3074 31.6666C75.7509 32.0876 74.9293 32.6558 73.8917 33.2251C71.8066 34.3693 68.9171 35.4813 65.5861 35.4813C62.2506 35.4813 59.2813 34.3667 57.1113 33.2142C56.0328 32.6413 55.1711 32.0693 54.5843 31.6448C54.2914 31.433 54.0685 31.259 53.923 31.1416C53.8503 31.0829 53.797 31.0385 53.7641 31.0106C53.7555 31.0034 53.7483 30.9973 53.7426 30.9923C53.7372 30.9878 53.7331 30.9842 53.7301 30.9816L53.725 30.9772Z" fill="#FF6B0A"/>
</svg>
