<svg width="49" height="26" viewBox="0 0 49 26" fill="none" xmlns="http://www.w3.org/2000/svg">
<path fill-rule="evenodd" clip-rule="evenodd" d="M20.7803 14.5945C18.5896 16.0752 15.7683 16.8156 12.2831 16.8156C8.7648 16.8156 5.91029 16.0752 3.75281 14.5945C1.56214 13.1138 0.5 11.0858 0.5 8.44626C0.5 5.83888 1.56214 3.77873 3.75281 2.298C5.91029 0.81727 8.7648 0.0769043 12.2831 0.0769043C15.7683 0.0769043 18.5896 0.81727 20.7803 2.298C22.971 3.77873 24.0663 5.83888 24.0663 8.44626C24.0663 11.0858 22.971 13.1138 20.7803 14.5945ZM8.23373 11.5687C9.26268 12.3734 10.6236 12.7597 12.2831 12.7597C13.9427 12.7597 15.2704 12.3734 16.2994 11.5687C17.3283 10.7639 17.8594 9.73385 17.8594 8.44626C17.8594 7.19085 17.3283 6.16078 16.2994 5.35603C15.2704 4.55129 13.9427 4.13282 12.2831 4.13282C10.6236 4.13282 9.26268 4.55129 8.23373 5.35603C7.20478 6.16078 6.7069 7.19085 6.7069 8.44626C6.7069 9.73385 7.20478 10.7639 8.23373 11.5687Z" fill="#FF6B0A"/>
<path fill-rule="evenodd" clip-rule="evenodd" d="M36.7169 16.8156C40.202 16.8156 43.0233 16.0752 45.214 14.5945C47.4047 13.1138 48.5 11.0858 48.5 8.44626C48.5 5.83888 47.4047 3.77873 45.214 2.298C43.0233 0.81727 40.202 0.0769043 36.7169 0.0769043C33.1985 0.0769043 30.344 0.81727 28.1865 2.298C25.9958 3.77873 24.9337 5.83888 24.9337 8.44626C24.9337 11.0858 25.9958 13.1138 28.1865 14.5945C30.344 16.0752 33.1985 16.8156 36.7169 16.8156ZM36.7169 12.7597C35.0573 12.7597 33.6964 12.3734 32.6674 11.5687C31.6385 10.7639 31.1406 9.73385 31.1406 8.44626C31.1406 7.19085 31.6385 6.16078 32.6674 5.35603C33.6964 4.55129 35.0573 4.13282 36.7169 4.13282C38.3764 4.13282 39.7041 4.55129 40.7331 5.35603C41.762 6.16078 42.2931 7.19085 42.2931 8.44626C42.2931 9.73385 41.762 10.7639 40.7331 11.5687C39.7041 12.3734 38.3764 12.7597 36.7169 12.7597Z" fill="#FF6B0A"/>
<path d="M12.6124 19.4402C13.1368 18.8306 14.0566 18.7599 14.6682 19.2818L14.6726 19.2855L14.6832 19.2943C14.6882 19.2984 14.6943 19.3035 14.7016 19.3095C14.7297 19.3325 14.7752 19.3693 14.8372 19.4179C14.9615 19.5151 15.1517 19.6591 15.4017 19.8345C15.9026 20.1859 16.6381 20.6594 17.5587 21.1336C19.4109 22.0876 21.9454 23.0103 24.7925 23.0103C27.6358 23.0103 30.1021 22.0898 31.882 21.1426C32.7676 20.6713 33.4689 20.201 33.9439 19.8525C34.181 19.6786 34.3604 19.536 34.4769 19.4401C34.5352 19.3922 34.5775 19.3561 34.6035 19.3337C34.6164 19.3225 34.6252 19.3148 34.6298 19.3107L34.6309 19.3098L34.6316 19.3092L34.633 19.3079L34.6333 19.3076C35.2305 18.7697 36.1517 18.8154 36.6923 19.4105C37.2337 20.0064 37.1886 20.9274 36.5914 21.4677L35.6112 20.3888C36.5914 21.4677 36.591 21.4681 36.5906 21.4684L36.5897 21.4692L36.5876 21.4711L36.5822 21.476L36.5749 21.4825L36.5662 21.4902C36.5534 21.5016 36.5361 21.5167 36.5145 21.5354C36.4713 21.5727 36.4107 21.6242 36.3334 21.6878C36.1788 21.815 35.9568 21.991 35.6727 22.1994C35.1054 22.6155 34.2855 23.1646 33.2554 23.7128C31.2038 24.8046 28.2608 25.9231 24.7925 25.9231C21.3279 25.9231 18.3261 24.8068 16.2199 23.7219C15.1613 23.1766 14.3121 22.6306 13.7231 22.2174C13.4281 22.0105 13.1971 21.8359 13.0363 21.7101C12.9558 21.6472 12.8929 21.5963 12.8481 21.5597C12.8359 21.5496 12.8251 21.5407 12.8156 21.5328C12.8077 21.5262 12.8008 21.5205 12.7948 21.5154L12.788 21.5098C12.7844 21.5067 12.7812 21.504 12.7786 21.5017L12.7731 21.4971L12.771 21.4953L12.7701 21.4946C12.7697 21.4942 12.7693 21.4939 13.7199 20.3888L12.7693 21.4939C12.1577 20.97 12.0875 20.0506 12.6124 19.4402Z" fill="#FF6B0A"/>
</svg>
